# xmcd
#
# Track frame offsets:
#	150
#	39589
#	87560
#	110803
#	148587
#	165807
#	204796
#	211817
#
# Disc length: 3272 seconds
#
# Revision: 0
# Processed by: cddbd v1.5.2PL0 Copyright (c) Steve Scherf et al.
# Submitted via: audiograbber 1.83.01
#
DISCID=660cc608
DTITLE=Soul Stew Revival - DTB070615D2
DYEAR=2007
DGENRE=
TTITLE0=Soul Serenade
TTITLE1=Hercules
TTITLE2=Coming Home
TTITLE3=Sugar > Do Yourself a Favor >
TTITLE4=Drums
TTITLE5=The Feeling Music Brings
TTITLE6=Crowd
TTITLE7=Key to the Highway
EXTD=
EXTT0=
EXTT1=
EXTT2=
EXTT3=
EXTT4=
EXTT5=
EXTT6=
EXTT7=
PLAYORDER=
